<svg _ngcontent-c6="" class="ng-tns-c6-0" height="18" viewBox="0 0 18 18" width="18" xmlns="http://www.w3.org/2000/svg">
<path _ngcontent-c6="" class="ng-tns-c6-0" d="M8.379 1.5L1.19 8.69C.907 8.971.75 9.348.75 9.75s.156.779.44 1.06l4.5 4.5c.284.283.66.44 1.06.44.401 0 .779-.156 1.06-.44L15 8.122V1.5H8.379zM9 3h4.5v4.5l-6.75 6.75-4.5-4.5L9 3zm2.25 1.5a.75.75 0 1 0 0 1.5.75.75 0 0 0 0-1.5zm2.25 6.75v2.25h-2.25V15h2.25v2.25H15V15h2.25v-1.5H15v-2.25h-1.5z" fill-rule="evenodd" fill="var(--theme-color)"></path>
</svg>